<svg xmlns="http://www.w3.org/2000/svg"  viewBox="0 0 64 64" width="256px" height="256px"><path d="M 3 10 L 3 54 L 61 54 L 61 10 L 3 10 z M 10.960938 14 L 53.039062 14 A 3.5 3.5 0 0 0 56.5 18 A 3.5 3.5 0 0 0 57 17.958984 L 57 46.037109 A 3.5 3.5 0 0 0 56.5 46 A 3.5 3.5 0 0 0 53.039062 50 L 10.960938 50 A 3.5 3.5 0 0 0 7.5 46 A 3.5 3.5 0 0 0 7 46.041016 L 7 17.962891 A 3.5 3.5 0 0 0 7.5 18 A 3.5 3.5 0 0 0 10.960938 14 z M 32.085938 18 L 32.085938 19.246094 C 30.270938 19.541094 28.798828 20.624766 28.798828 22.384766 C 28.798828 24.795766 31.259266 25.465859 32.822266 26.255859 C 34.069266 26.889859 34.921875 27.270703 34.921875 28.095703 C 34.921875 29.024703 34.282391 29.625 32.900391 29.625 C 31.687391 29.625 30.530891 29.164297 29.587891 28.529297 L 28.625 30.675781 C 29.568 31.304781 30.866891 31.697641 32.087891 31.806641 L 32.087891 33 L 34.087891 33 L 34.087891 31.771484 C 36.251891 31.477484 37.498047 30.340797 37.498047 28.216797 C 37.498047 26.289797 35.904266 25.240953 33.572266 24.126953 C 32.105266 23.417953 31.240234 23.042687 31.240234 22.304688 C 31.240234 21.767688 32.009953 21.421875 33.126953 21.421875 C 34.437953 21.421875 35.303031 21.698187 36.207031 22.367188 L 36.923828 20.099609 C 36.109828 19.551609 35.190937 19.281453 34.085938 19.189453 L 34.085938 18 L 32.085938 18 z M 16 24 L 16 28 L 24 28 L 24 24 L 16 24 z M 41 24 L 41 28 L 49 28 L 49 24 L 41 24 z M 16 37 L 16 40 L 49 40 L 49 37 L 16 37 z M 23 43 L 23 46 L 43 46 L 43 43 L 23 43 z"/></svg>